<?xml version="1.0" encoding="UTF-8"?>
<svg id="Capa_1" data-name="Capa 1" xmlns="http://www.w3.org/2000/svg" viewBox="0 0 1162.08 1275.6">
  <defs>
    <style>
      .cls-1 {
        fill: #9e2d23;
      }

      .cls-2 {
        fill: #636360;
      }

      .cls-3 {
        fill: #1e1e19;
      }

      .cls-4 {
        fill: #a02c24;
      }

      .cls-5 {
        fill: #c91818;
      }

      .cls-6 {
        fill: #bbbcbb;
      }

      .cls-7 {
        fill: #d9d9d8;
      }

      .cls-8 {
        fill: #1c1c18;
      }

      .cls-9 {
        fill: #aaaaa8;
      }

      .cls-10 {
        fill: #1a1b17;
      }

      .cls-11 {
        fill: #c21f19;
      }

      .cls-12 {
        fill: #1b1b16;
      }

      .cls-13 {
        fill: #e39393;
      }

      .cls-14 {
        fill: #90918e;
      }

      .cls-15 {
        fill: #fff;
      }

      .cls-16 {
        fill: #171915;
      }

      .cls-17 {
        fill: #d7d7d6;
      }

      .cls-18 {
        fill: #181914;
      }

      .cls-19 {
        fill: #979795;
      }

      .cls-20 {
        fill: #3b3c38;
      }

      .cls-21 {
        fill: #a22d24;
      }

      .cls-22 {
        fill: #767673;
      }

      .cls-23 {
        fill: #191a16;
      }

      .cls-24 {
        fill: #c31b18;
      }

      .cls-25 {
        fill: #c31a19;
      }

      .cls-26 {
        fill: #c51718;
      }

      .cls-27 {
        fill: #c1c1c0;
      }

      .cls-28 {
        fill: #20211c;
      }

      .cls-29 {
        fill: #1c1d18;
      }

      .cls-30 {
        fill: #7c7d7b;
      }

      .cls-31 {
        fill: #d24b4c;
      }

      .cls-32 {
        fill: #747471;
      }

      .cls-33 {
        fill: #989997;
      }

      .cls-34 {
        fill: #112f47;
      }

      .cls-35 {
        fill: #dcdcdb;
      }

      .cls-36 {
        fill: #c12323;
      }

      .cls-37 {
        fill: #1e1d16;
      }

      .cls-38 {
        fill: #929390;
      }

      .cls-39 {
        fill: #9c9c9a;
      }

      .cls-40 {
        fill: #a33029;
      }

      .cls-41 {
        fill: #cfcfce;
      }

      .cls-42 {
        fill: #8a8a88;
      }

      .cls-43 {
        fill: #95221d;
      }

      .cls-44 {
        fill: #b3b3b1;
      }

      .cls-45 {
        fill: #babab8;
      }

      .cls-46 {
        fill: #112f44;
      }

      .cls-47 {
        fill: #828380;
      }

      .cls-48 {
        fill: #acacab;
      }

      .cls-49 {
        fill: #181915;
      }

      .cls-50 {
        fill: #0f2f46;
      }

      .cls-51 {
        fill: #9f3227;
      }

      .cls-52 {
        fill: #923d32;
      }

      .cls-53 {
        fill: #db1218;
      }

      .cls-54 {
        fill: #bf1d1b;
      }

      .cls-55 {
        fill: #fefefe;
      }

      .cls-56 {
        fill: #353631;
      }

      .cls-57 {
        fill: #c31918;
      }

      .cls-58 {
        fill: #50514d;
      }
    </style>
  </defs>
  <path class="cls-15" d="M487.48,0l4.13,1.45,55.65,56.35c.87,4.43-10.61,23.19-14.39,27.72-9.75,11.68-28.73,31.53-40.64,40.51-3.3,2.49-6.44,3.63-10.51,4.51-.29,1.85-1.04,1.74-1.92,0-1.82.82-3.96.87-5.76,0-.1.87-.43.82-.96,0l-3.84-.96c-.18.84-.5.81-.96,0-9.32-2.78-38.75-16.66-39.89-26.42-.1-.85,0-1.69.55-2.38-.84-.24-.82-.56,0-.96l1.92-7.68c-.85-.18-.81-.5,0-.96,2.91-29.46-38.72-36.84-47.02-8.64.83.24.81.56,0,.96-.95,3.43-.99,7.13,0,10.56.84.24.82.56,0,.96,3.51,8.07,9.77,14.19,18.78,18.36l4.45,5.66c6.37,14.42,12.06,29.13,17.08,44.13.85.26.84.58,0,.96l6.72,17.28c.85.26.84.58,0,.96,2.14,7.81,5.34,14.52,9.6,20.16.29-.82.61-.81.96,0,.71.39,1.23.45,1.92,0,.18-.86.5-.83.96,0l23.99-8.64c.26-.85.58-.84.96,0,9.15-2.74,18.42-4.98,27.83-6.72.23-.85.56-.83.96,0l10.56-1.92c.18-.86.5-.83.96,0l6.72-.96c.18-.86.5-.82.96,0l6.72-.96c.54-1.84,1.38-1.83,1.92,0l9.6-.96c.54-1.84,1.38-1.84,1.92,0,12.46-.82,24.97-.82,37.42,0,.54-1.84,1.38-1.84,1.92,0l10.56.96c.54-1.83,1.38-1.84,1.92,0l7.68.96c.18-.86.5-.82.96,0l29.75,4.8c.24-.84.56-.81.96,0l3.84.96c.24-.84.56-.82.96,0l7.68,1.92c.24-.84.56-.82.96,0l10.56,2.88c.32-.83.64-.83.96,0l10.05,3.09c1.05-2.84,4.77-1.19,2.75,1.07,3.13,2.99-2.68,7.34-6.79,5.21-7.97-2.65-16.05-4.81-24.23-6.49-.32.83-.64.83-.96,0l-3.84-.96c-.23.83-.56.81-.96,0l-9.6-1.92c-.32.83-.64.83-.96,0l-5.76-.96c-.18.86-.5.82-.96,0l-6.72-.96c-.18.86-.5.82-.96,0l-9.6-.96c-.54,1.84-1.38,1.84-1.92,0l-15.35-.96c-1.21,1.87-2.63,1.87-3.84,0-7.32-.82-14.75-.89-22.07,0-1.5,2.62-3.29,2.6-4.8,0-4.52-.05-9,.27-13.43.96-.54,1.84-1.38,1.84-1.92,0l-8.64.96c-.18.86-.5.82-.96,0l-7.68.96c-.18.86-.5.82-.96,0l-5.76.96c-.1.88-.43.83-.96,0l-4.8.96c-.24.85-.56.83-.96,0l-22.07,4.8c-.32.83-.64.83-.96,0l-28.43,7.15c-14.25,2.82-17.12,13.37-3.24,20.68.24-.82.56-.8.96,0h1.92c.24-.84.56-.82.96,0l9.6-2.88c.32-.83.64-.83.96,0l2.88-.96c.32-.83.64-.83.96,0l2.88-.96c.32-.83.64-.83.96,0l2.88-.96c.32-.83.64-.83.96,0l11.52-2.88c.32-.83.64-.83.96,0l11.52-2.88c.17-.87.5-.84.96,0,1.02-.63,5.05-1.39,5.08.12-33.79,16.84-61.14,48.46-70.33,85.31.83.32.83.64,0,.96.05,1.74-.27,3.34-.96,4.8.83.32.83.64,0,.96l-2.59,2.69c-13.78,4.24-23.86,12.61-28.12,27.06.82.32.82.64,0,.96l-.96,3.84c.83.32.83.64,0,.96-.91,2.78-.91,5.85,0,8.64.88.1.83.43,0,.96,1.95,13.59,15.1,22.88,27.74,25.55,4.35,1.39,6.3,5.03,5.84,10.93.86.18.83.5,0,.96l.96,10.56c1.86.88,1.86,2,0,2.88.8,6.7.8,13.45,0,20.16,1.87,1.21,1.87,2.63,0,3.84-.61,11.13-.93,22.65-.96,34.55,1.88,7.34,1.89,14.74,0,22.08-.82,5.39-.82,10.93,0,16.32,2.38,11.52,2.41,23.03,0,34.55.82,11.47.88,23.08,0,34.55,2.85.75,2.89,16.11,2.16,17.81-.34.8-1.3,1.15-2.16,1.39-4.91,1.88-10.03,3.16-15.35,3.84-.32.83-.64.83-.96,0l-14.39,3.84c-.32.83-.64.83-.96,0l-2.88.96c-.32.83-.64.83-.96,0l-13.43,2.88c-.32.83-.64.83-.96,0l-17.27.96c-.23,1.94-1.18,1.85-1.92,0l-4.8.96c-.24.85-.56.83-.96,0l-46.06,10.56c-.23.85-.56.83-.96,0l-14.39,2.88c-.24.85-.56.83-.96,0l-3.84.96c-.24.85-.56.83-.96,0l-9.6,1.92c-.24.85-.56.83-.96,0-1.49.68-3.09,1-4.8.96-.24.85-.56.83-.96,0l-27.83,4.8c-.18.87-.5.83-.96,0l-5.76.96c-.18.86-.5.82-.96,0l-5.76.96c-.18.86-.5.82-.96,0l-6.72.96c-.18.86-.5.82-.96,0l-7.68.96c-.18.86-.5.82-.96,0l-9.6.96c-.88,1.86-2,1.86-2.88,0-7.98.81-16.02.85-23.99,0-.54,1.84-1.38,1.84-1.92,0l-8.64-.96c-.54,1.83-1.38,1.84-1.92,0l-6.72-.96c-.18.86-.5.82-.96,0l-10.56-1.92c-.24.84-.56.82-.96,0l-8.64-1.92c-.24.84-.56.82-.96,0l-11.52-2.88c-.32.83-.64.83-.96,0l-10.56-2.88c-.32.83-.64.83-.96,0l-23.03-6.72c-.26.83-.58.81-.96,0-21.57-6.85-43.14-14.94-64.29-23.04-.23.85-.55.83-.96,0-1.24,4.14-.13,9.19.96,13.44.85.24.83.56,0,.96l1.92,7.68c.85.23.83.56,0,.96l.96,2.88c.83.32.83.64,0,.96l4.8,18.24c.83.32.83.64,0,.96l8.64,28.79c.85.26.84.58,0,.96l11.52,33.59c.85.26.84.58,0,.96l7.07,19.02c9.06,18.8-3.82,31.55-17.4,44.11-12.92,11.12-25.79,22.07-38.61,32.85,18.67,17.69,48.46,30.77,73.97,40.18,106.07,39.16,216.71,18.29,324.28-2.16l17.37-1.74c8.45-.18,11.86,3.88,12.56,11.78.31,20.08,1.03,40.1,2.17,60.05.17,15.1-1.61,20.53-14.55,27.54-18.1,14.58-18.07,44.43,2.56,56.69,12.22,4.56,17.44,10.87,20.41,23.5,31.79,67.72,109.33,90.84,176.03,60.19,32.81-15.08,44.3-35.3,58.94-66.47,5.9-8.74,14.11-15.12,24.64-19.14,20.6-10.41,20.71-42.28,1.63-54.11-17.25-6.06-18.11-16.46-16.15-34.59-1.43-22.16-1.58-44.29-.47-66.39,1.24-10.26,1.78-12.39,12.24-12.61,50.85,4.59,104.12,12.96,154.2,25.35,1.74.43,3.46.92,5.15,1.48,3.93,1.32-4.35,11.41-5.89,13.24-9.65,11.44-20.92,20.85-34.05,28.96-20.81,12.3-40.85,25.25-60.11,38.83-17.37,11.3-11.47,28,5.97,36.38,26.65,12.81,50.39-4.62,70.11-21.26,29.36-18.85,68.73-8.03,99.98,1.38,53.47,16.11,106.74,41.29,155.28,69.65,5.07.36-16.8-92.3-18.75-99.58-1.07-5.04-5.04-24.32-2.88-29.17,3.01-6.78,33.9-28.82,41.97-32.93,15.19-7.74,29.93-14.78,45.69-21.36.7-.29,1.51-.33,2.36-.35s1.74.08,2.62.22v446.32h-555.61c-.84-.27-.83-.59,0-.96,2.04-1.08,4.16-2.14,6.47-2.47,37.68-5.43,69.22-10.87,105.5-23.67,72.45-25.57,140.6-68.5,195.18-122.54,20.41-20.2,37.18-41.59,53.95-63.6,2.29-3,7.59-10.27,8.37-13.64.14-.59-.21-2.24-.6-2.72-37.09-23.83-80.97-47.8-120.73-69-11.75-6.99-16.32-5.53-24.57,5.45-116.23,143.2-323.34,163.54-476.53,67.33-15.09-9.47-28.48-19.81-42.41-30.81-2.91-2.3-29.02-24.65-30.35-29.66-1.45-5.46,1.01-7.98,5.02-11.12,56.89-36.04,85.34-54.06,85.34-54.06,4.22-6.12,9.19-10.45,14.91-13.01,3.26,3.09,8.47-3,10.96-6.01,12.16-14.71,13.91-33.51-1.23-46.85-11.84-10.43-40.09-4.02-53.48,1.64-66.15,44.99-134.11,87-203.88,126.03-27.19,25.62-11.76,57.39,7.6,82.12,66.29,84.67,150.47,147.74,253.41,182.05,37.61,12.54,70.17,17.45,109.12,22.19,2.39.29,4.62,1.3,6.78,2.35.84.27.83.59,0,.96H0V0h487.48Z"/>
  <path class="cls-55" d="M487.48,0h674.6v826.4l-4.47-2.35c-24.45-28.89-57.8-45.97-90.79-60.25-9.66-3.86-10.57-7.22-8.62-17.37,4.37-14.78,8.47-29.61,12.31-44.49.96-5.68,1.1-7.58-3.47-10.95-13.09-9.63-43.36-23.45-58.04-29.68-99.28-42.18-204.21-65.76-310.96-72.96-14.1-2.2-14.05-5.61-11.89-18.73,1.11-57.86.85-117.76-.77-174.46.87-6.22,3.89-11.55,9.66-14.13,28.29-7.05,36.6-38.13,14.6-58.34-9.12-5.24-15.83-12.17-20.12-20.78-11.87-38.65-41.61-71.37-80.66-84.43-6.08-4.17,3.19-5.48,6.81-5.34,19.79,3.88,39.36,8.69,58.72,14.42,4.18.36,10.75-9.19,8.08-11.88-15.05-6.04-30.52-10.98-46.43-14.81l-.78-2.16c6.07-.82,22.04,6.97,26.42,6.35,1.03-.15,5.15-4.42,4.28-5.39l-12.47-3.85,2.01-1.49c8.74,3.65,17.41,5.94,26.02,6.86,12.47-27.99,23.29-56.46,33.79-84.66,5.03-7.1,10.88-13.55,17.55-19.35,12.38-32.59-40.57-41.39-39.03-6.19,6.63,14.2-.48,20-11.95,28.05-19.27,13.53-40.9,20.18-62.36,7.17-15.41-9.34-38.09-46.91-45.26-63.76-4.48-10.53-4.37-15.63,5.14-23.35,19.06-25.48-19.8-48.84-35.99-25.54-9.03,12.99.16,23.67,9.43,33.06,2.51,5.94-7.38,24.74-10.44,30.54-10.4,19.67-23.88,43.06-45.1,52.46-4.39,1.94-11.84,5.2-15.59,1.9,1.51-1.2,3.13-1.08,4.86-2.34,8.77-6.38,44.42-42.42,51.3-51.39,3.71-4.83,5.78-11.54,8.83-16.83L487.48,0Z"/>
  <path class="cls-49" d="M551.77,191c7.33-.88,14.74-.82,22.07,0,1.28,0,2.56,0,3.84,0l15.35.96c.64,0,1.28,0,1.92,0l9.6.96c.32,0,.64,0,.96,0l6.72.96c.32,0,.64,0,.96,0l5.76.96c.32.01.64-.02.96,0l9.6,1.92c.31.05.65-.06.96,0l3.84.96c.31.07.66-.07.96,0,6.52,1.47,46.59,12.75,48.86,15.93,3.28,4.59-4.12,15.31-9.97,14.81-19.54-4.74-38.63-11.4-58.58-14.41l-8.13.93c36.61,11.95,63.03,37.65,78.85,72.31,2.8,6.13,4.29,14.43,8.05,19.78,6.19,8.81,17.21,11.77,23.85,22.22,10.34,16.27,6.7,38.91-10.66,48.69-6.85,3.85-15.27,3.67-18.71,12s-.83,15.87-.73,24.14c.64,51.92,1.06,103.64,0,155.57-.12,5.63-4.19,13.94,4.35,15.73,15.11,3.16,35.61,3.01,51.63,4.99,97.34,12.02,202.86,36.49,290.42,80.96,9.33,4.74,27,13.22,34.86,18.88,4.09,2.95,3.82,6.06,3.25,10.65-1.9,15.39-10.78,33.52-12.93,48.48-.37,2.58-.92,6.27.64,8.46,1.81,2.53,33.36,15.87,39.43,19.11,23.4,12.52,45.6,28.79,62.35,49.45v2.88c-18.17,8.27-36.63,14.94-53.66,25.52-6.13,3.81-35.77,24.7-37.31,29.87-.7,2.35-.19,5.71.07,8.18,3.66,34.58,18.16,72.99,21.69,107.88.16,1.58.48,14.77-.37,14.77-37.11-22.63-76.36-41.28-117.05-56.66-33.69-12.73-90.34-34.01-125.21-22.5-20.75,6.85-30.4,25.65-51.85,30.68-16.18,3.8-35.2,1.2-46.05-12.51-14.76-18.64,5.09-28.9,18.87-38.67,23.37-16.58,55.38-31.58,75.15-51.53,1.87-1.88,14.17-16.11,12.48-17.75-30.94-6.04-61.56-13.27-92.76-18.08-18.85-2.91-41.51-6.8-60.3-7.83-4.04-.22-13.7-1.53-14.64,3.53-5.01,27.05,1.19,62-1.08,89.93,1.67,13.78,11.68,11.95,20.05,19.29,11.47,10.06,13.96,30.57,5.93,43.39-9.67,15.43-26.35,12.52-35.85,29.41-15.87,28.23-17.75,43.47-48.86,61.51-67.63,39.23-154.48,17.59-188.83-53.81-2.24-4.66-3.8-12.56-6.84-16.19-3.26-3.89-12.41-6.55-17.29-10.54-17.26-14.08-16.89-39.97-1.46-55.23,5.74-5.69,14.42-6.79,15.78-16.85,1.56-11.45-.62-24.01-.91-35.39-.32-12.13.5-25.48-.9-37.49-1.1-9.41-8.71-8.63-15.7-7.97-30.5,2.87-62.77,11.3-93.4,15.99-103.7,15.87-195.12,17.17-289.81-33.27-4.32-2.3-25.89-15.01-27-18.14-.32-.9-.29-2.17-.18-3.14,12.99-10.87,25.9-21.86,38.74-32.97,13.15-11.37,26.31-25.79,17.32-43.84l-7.12-19.16c-.09-.29.09-.67,0-.96l-11.52-33.59c-.09-.3.08-.66,0-.96l-8.64-28.79c-.07-.3.07-.66,0-.96l-4.8-18.24c-.06-.31.06-.65,0-.96l-.96-2.88c-.05-.31.05-.65,0-.96l-1.92-7.68c-.04-.32.04-.64,0-.96-1.14-4.32-2.14-9.13-.96-13.44.24-.12.66.08.96,0,21.26,8.15,42.59,16.13,64.29,23.04.3.08.66-.08.96,0l23.03,6.72c.31.06.65-.06.96,0l10.56,2.88c.31.05.65-.06.96,0l11.52,2.88c.31.05.65-.05.96,0l8.64,1.92c.32.03.64-.04.96,0l10.56,1.92c.32.02.64-.01.96,0l6.72.96c.64,0,1.28-.01,1.92,0l8.64.96c.64,0,1.28,0,1.92,0,7.92.69,16.22,1.09,23.99,0,.96,0,1.92,0,2.88,0l9.6-.96c.32,0,.64,0,.96,0l7.68-.96c.32,0,.64,0,.96,0l6.72-.96c.32,0,.64,0,.96,0l5.76-.96c.32,0,.64,0,.96,0l5.76-.96c.32,0,.64.02.96,0l27.83-4.8c.31-.04.65.04.96,0,1.69.03,3.29-.29,4.8-.96.32-.04.64.04.96,0l9.6-1.92c.31-.04.65.04.96,0l3.84-.96c.31-.05.65.04.96,0l14.39-2.88c.31-.05.65.05.96,0l46.06-10.56c.31-.05.65.04.96,0l4.8-.96c.64-.04,1.28.03,1.92,0l17.27-.96c.32-.02.64.02.96,0l13.43-2.88c.31-.06.65.06.96,0l2.88-.96c.31-.06.65.06.96,0l14.39-3.84c.31-.05.65.06.96,0,5.29-.7,10.41-1.98,15.35-3.84.92-3.76-.05-14.41,0-19.2,1.22-10.96,1.16-23.61,0-34.55.04-11.5,0-23.05,0-34.55-.82-5.37-.83-10.94,0-16.32,0-7.35,0-14.73,0-22.08.57-11.17.89-22.69.96-34.55,0-1.28,0-2.56,0-3.84.81-6.68.82-13.48,0-20.16,0-.96,0-1.92,0-2.88l-.96-10.56c0-.32.01-.64,0-.96.42-5.8-1.48-9.42-5.67-10.86-12.7-2.73-26-11.89-27.91-25.61-.03-.32.02-.64,0-.96-.92-2.79-.92-5.86,0-8.64.02-.32-.03-.64,0-.96l.96-3.84c.06-.31-.07-.66,0-.96,4.22-13.9,13.85-22.95,27.71-26.81,1.26-.69,2.33-1.66,3-2.94.05-.31-.06-.65,0-.96.69-1.46,1.01-3.06.96-4.8.07-.31-.07-.66,0-.96,8.27-33.55,30.97-61,59.68-79.43,4.62-2.96,10.28-6.55,15.17-6.95,1.04-.82.4-1.14-1.92-.96-1.69,1.39-4.25,2.03-7.68,1.92-.32,0-.65-.03-.96,0l-11.52,2.88c-.31.05-.65-.05-.96,0l-11.52,2.88c-.31.07-.66-.07-.96,0l-2.88.96c-.31.07-.65-.07-.96,0l-2.88.96c-.31.07-.65-.07-.96,0l-2.88.96c-.31.07-.65-.07-.96,0l-9.6,2.88c-.31.04-.64-.02-.96,0h-1.92c-.33-.06-.69.08-.96,0-13.45-6.97-11.38-17.67,2.83-20.56l28.83-7.28c.31-.06.65.06.96,0l22.07-4.8c.31-.05.65.04.96,0l4.8-.96c.32-.03.64.01.96,0l5.76-.96c.32,0,.64,0,.96,0l7.68-.96c.32,0,.64,0,.96,0l8.64-.96c.64,0,1.28,0,1.92,0,4.44-.69,8.92-1.01,13.43-.96,1.6-.05,3.2.04,4.8,0Z"/>
  <path class="cls-28" d="M578.64,1274.64c.84.27.83.59,0,.96h-43.18c-.84-.27-.83-.59,0-.96,14.19-2.68,29-2.72,43.18,0Z"/>
  <path class="cls-56" d="M586.32,1274.64c.84.27.83.59,0,.96h-7.68v-.96c2.45-2.63,5.21-2.6,7.68,0Z"/>
  <path class="cls-20" d="M535.46,1274.64v.96h-6.72c-.84-.27-.83-.59,0-.96,2.15-2.6,4.58-2.63,6.72,0Z"/>
  <path class="cls-32" d="M595.91,1274.64c.84.27.83.59,0,.96h-4.8c-.84-.27-.83-.59,0-.96,1.5-2.61,3.29-2.59,4.8,0Z"/>
  <path class="cls-7" d="M606.47,1274.64v.96h-4.8c-.84-.27-.83-.59,0-.96.73-2.77,4-2.68,4.8,0Z"/>
  <path class="cls-58" d="M591.12,1274.64v.96h-4.8v-.96c1.72-2.42,3.07-2.41,4.8,0Z"/>
  <path class="cls-17" d="M519.15,1274.64c.84.27.83.59,0,.96h-3.84v-.96c.95-2.64,2.9-2.68,3.84,0Z"/>
  <path class="cls-9" d="M522.98,1274.64c.84.27.83.59,0,.96h-3.84v-.96c1.2-2.59,2.64-2.61,3.84,0Z"/>
  <path class="cls-2" d="M528.74,1274.64v.96h-3.84c-.84-.27-.83-.59,0-.96,1.41-2.43,2.43-2.43,3.84,0Z"/>
  <path class="cls-39" d="M598.79,1274.64c.84.27.83.59,0,.96h-2.88v-.96c1.1-2.44,1.79-2.44,2.88,0Z"/>
  <path class="cls-45" d="M601.67,1274.64v.96h-2.88v-.96c.89-2.6,2-2.59,2.88,0Z"/>
  <path class="cls-47" d="M524.9,1274.64v.96h-1.92v-.96c.54-1.83,1.38-1.84,1.92,0Z"/>
  <path class="cls-18" d="M515.31,1274.64c-139.39-7.5-279.87-88.5-364.61-197.28-21.69-27.85-45.46-61.67-13.39-92.98,70.51-37.92,137.13-82.31,204.01-126.13,12.02-5.97,41.81-11.16,53.02-3.47,17.7,12.14,18.33,35.93,4.39,51.3-1.16,1.27-9.85,9.61-10.57,9.57-1.46-.07.13-4.55-4.65-1.75-3.94,2.31-7.62,9.39-13.36,13.51-24.82,17.8-54.91,31.77-79.69,49.87-4.03,2.94-9.77,5.66-7.91,11.39.78,2.42,11.36,12.41,13.96,14.84,144.69,135.2,377.48,142.47,516.77-4.32,6.38-6.73,12.27-15.06,18.67-21.63,2.34-2.4,5.92-6.74,9.23-7.16,5.79-.72,25.51,10.88,31.75,14.22,24.78,13.27,50.63,27.94,74.85,42.23,4.08,2.41,28,16.19,29.15,18.11.6,1,.98,2.5.95,3.66-.1,3.72-11.61,18.76-14.61,22.85-79.78,109.17-220.62,192.94-356.8,203.18-1.58.12-3.21-.08-4.8,0-.96.05-1.92-.03-2.88,0s-1.92-.03-2.88,0c-1.6.04-3.2-.03-4.8,0s-3.2-.02-4.8,0c-2.55.04-5.12-.03-7.68,0-14.35.16-28.83.21-43.18,0-2.24-.03-4.48.05-6.72,0-1.28-.03-2.56.03-3.84,0-.64-.02-1.28.02-1.92,0-1.28-.04-2.56.05-3.84,0s-2.57.07-3.84,0Z"/>
  <path class="cls-16" d="M481.72,130.54c32.85-1.69,54.75-44.11,66.38-71.34,6.58-15.41,3.68-10.23-4.4-20.89-6.26-8.26-8.36-17.21-2.32-26.15,16.46-24.39,55.07-4.55,42.59,22.44-4.77,10.31-14.41,8.83-9.33,22.68,5.48,14.93,28.97,52.55,40.98,62.67,24.01,20.25,54.57,7.81,74.79-11.52,8.46-8.08,2.33-10.16,1.47-18.68-2.69-26.45,34.84-34.3,43.64-9.11,6.77,19.39-10.22,21.56-17.28,33.54-5.02,8.53-9.29,25.36-13.44,35.51-7.05,17.28-14.75,34.34-21.8,51.61-1.44,1.1-3.03,1.27-4.78,1.04-6.38-.85-16.99-5.78-24.73-7.5-.3-.07-.65.06-.96,0l-10.56-2.88c-.31-.05-.65.05-.96,0l-7.68-1.92c-.31-.04-.65.04-.96,0l-3.84-.96c-.31-.05-.65.05-.96,0l-29.75-4.8c-.32-.02-.64.01-.96,0l-7.68-.96c-.64,0-1.28,0-1.92,0l-10.56-.96c-.64,0-1.28,0-1.92,0-11.85-1.21-25.56-1.22-37.42,0-.64,0-1.28,0-1.92,0l-9.6.96c-.64,0-1.28,0-1.92,0l-6.72.96c-.32,0-.64,0-.96,0l-6.72.96c-.32,0-.64-.02-.96,0l-10.56,1.92c-.32.04-.65-.04-.96,0-9.4,1.73-18.68,3.97-27.83,6.72-.3.08-.66-.08-.96,0l-23.99,8.64c-.3.06-.65-.04-.96,0-.64.46-1.25.43-1.92,0-.33-.07-.72.1-.96,0-4.26-5.65-7.46-12.37-9.6-20.16-.1-.29.1-.67,0-.96l-6.72-17.28c-.09-.29.1-.67,0-.96l-3.42-8.5c-3.66-15.41-9.72-29.19-18.17-41.34-9.01-4.16-15.24-10.26-18.71-18.3-.05-.31.03-.64,0-.96-.99-3.42-.95-7.14,0-10.56.03-.32-.04-.65,0-.96,8.46-28.23,49.8-20.84,47.02,8.64,0,.32.01.64,0,.96l-1.92,7.68c-.04.31.03.64,0,.96-.24.37-.46.79-.52,1.23-1.32,9.75,31.7,25.46,39.87,27.56.31.06.65-.06.96,0l3.84.96c.32.03.64-.02.96,0,1.82.85,3.94.8,5.76,0,.64,0,1.28.03,1.92,0Z"/>
  <path class="cls-55" d="M574.8,182.37c-12.46-.04-24.97-.04-37.42,0,1-1.59,3.64-.96,5.26-.98,8.95-.09,17.95-.11,26.9,0,1.62.02,4.27-.62,5.26.98Z"/>
  <path class="cls-55" d="M432.78,463.59c0-9.75-.12-19.53-.02-29.29.02-1.62-.61-4.27.98-5.27,0,9.75.14,19.53.02,29.29-.02,1.62.61,4.27-.98,5.27Z"/>
  <path class="cls-55" d="M432.78,571.09c.13-11.5-.04-23.05,0-34.55,1.59,1,.96,3.64.98,5.27.08,7.99.1,16.03,0,24.02-.02,1.62.61,4.27-.98,5.27Z"/>
  <path class="cls-55" d="M4.8,795.69c.14-1.21.33-2.14,1.41-2.88,16.75-13.08,37.62-28.52,50.9-45.1,12.94-16.15,2.03-30.89-3.37-48l10.31,27.6c.3,2.96.57,6.33.16,9.27-1.08,7.77-15.94,22.14-21.97,27.93-11.72,11.24-24.96,20.84-37.44,31.18Z"/>
  <path class="cls-55" d="M203.44,630.6c-1,1.59-3.64.96-5.26.98-5.95.06-13.14.73-18.73-.98,7.98.03,16.01.02,23.99,0Z"/>
  <path class="cls-55" d="M573.84,191c-7.33,0-14.74-.17-22.07,0,6.53-1.61,15.54-1.61,22.07,0Z"/>
  <path class="cls-55" d="M433.74,425.2c0-6.71.02-13.45,0-20.16,1.61,5.84,1.61,14.31,0,20.16Z"/>
  <path class="cls-55" d="M382.88,601.81c-5.17,2-11.71.65-17.27.96,5.17-2.02,11.71-.62,17.27-.96Z"/>
  <path class="cls-55" d="M504.75,215c1.73-.39,2.37-.07,1.92.96-4,1.98-8.23,3.4-12.16,5.59-29,16.18-54.27,48.66-62.69,80.79,4.12-17.95,9.65-29.32,20.73-44.05,12.38-16.47,29.17-32.39,48.35-40.42.22-1.65-2.76-.95-3.83-.95,2.12-1.9,5.16-1.49,7.68-1.92Z"/>
  <path class="cls-55" d="M432.78,501.99c-1.62-4.52-1.61-11.86,0-16.32v16.32Z"/>
  <path class="cls-55" d="M593.04,191.96c-4.88-.02-11.06.82-15.35-.96,4.88.01,11.06-.82,15.35.96Z"/>
  <path class="cls-55" d="M546.97,191c-3.89.11-8.72.93-13.43.96,3.67-2.15,9.19-.44,13.43-.96Z"/>
  <path class="cls-55" d="M587.28,183.33c-3.33-.04-8.01.82-10.56-.96,3.32.02,8.03-.81,10.56.96Z"/>
  <path class="cls-55" d="M430.86,91.18c.52-29.81-36.89-35.65-47.02-8.64,1-8.13,9.89-16.63,17.98-18.01,15.32-2.61,33.52,9.8,29.04,26.65Z"/>
  <path class="cls-55" d="M383.84,94.06c-1.6-2.25-1.64-8.12,0-10.56-.25,2.95-.3,7.65,0,10.56Z"/>
  <path class="cls-55" d="M468.29,129.58c-10.27-2.16-22.64-9.22-31.01-15.53-3.65-2.75-9.16-5.85-9.36-10.89-.09-2.15,1.02-2.24,1.03-2.37-1.01,4.87,3.51,8.21,6.8,10.96,9.45,7.9,21.38,12.99,32.55,17.84Z"/>
  <path class="cls-55" d="M433.74,402.16c-1.83-2.57-.86-7.2-.96-10.56,1.76,2.53.94,7.24.96,10.56Z"/>
  <path class="cls-55" d="M383.84,95.02c2.35,2.83,3.54,6.55,6.1,9.26,3.6,3.81,9.06,5.38,13.01,8.58,7.69,6.25,17.56,39.29,21.2,50.3-8.52-13.46-10.38-39.87-22.57-49.89-6.75-5.55-16.02-7.56-17.73-18.26Z"/>
  <path class="cls-55" d="M535.46,182.37c-2.22,1.78-6.57.92-9.6.96,2.21-1.75,6.59-.94,9.6-.96Z"/>
  <path class="cls-55" d="M215.91,629.64c-2.21,1.75-6.59.94-9.6.96,2.22-1.78,6.57-.92,9.6-.96Z"/>
  <path class="cls-55" d="M432.78,390.65c-1.92-1.65-.49-4.8-1.14-7.02-1.13-3.9-12.88-5.29-16.07-6.96-1.97-1.04-12.11-10.41-13.51-12.4-2.56-3.67-2.54-5.9-2.87-10.09,1.54,8.8,10.13,18.1,17.98,21.85,4.06,1.94,14.54,3.05,15.58,8.42.36,1.86-.05,4.21.03,6.2Z"/>
  <path class="cls-55" d="M604.55,192.92c-3.03-.05-7.37.82-9.6-.96,3.01.02,7.39-.8,9.6.96Z"/>
  <path class="cls-55" d="M531.62,191.96c-1.91,1.76-5.92.92-8.64.96,1.89-1.74,5.93-.94,8.64-.96Z"/>
  <path class="cls-55" d="M177.53,630.6c-2.71-.02-6.74.78-8.64-.96,2.72.04,6.73-.8,8.64.96Z"/>
  <path class="cls-55" d="M399.2,353.21c-1.62-1.79-1.62-6.85,0-8.64-.17,2.65-.17,5.98,0,8.64Z"/>
  <path class="cls-55" d="M25.91,602.77c-2.03-3.77-2.15-8.72-1.81-12.88.08-.66.57-.42.85-.55-.26,4.51.45,8.99.96,13.44Z"/>
  <path class="cls-55" d="M400.15,338.82c2.43-10.06,8.33-18.34,17.58-23.21,4.52-2.38,9.41-2.71,13.13-6.55-.77,4.45-8.2,5-11.88,6.84-9.78,4.89-14.53,13.34-18.83,22.92Z"/>
  <path class="cls-55" d="M522.02,192.92c-1.61,1.74-5.26.9-7.68.96,1.59-1.71,5.27-.94,7.68-.96Z"/>
  <path class="cls-55" d="M224.55,628.68c-1.59,1.71-5.28.94-7.68.96,1.6-1.73,5.26-.92,7.68-.96Z"/>
  <path class="cls-55" d="M596.87,184.29c-2.43-.08-6.06.79-7.68-.96,2.4.02,6.08-.75,7.68.96Z"/>
  <path class="cls-55" d="M523.94,183.33c-1.31,1.68-4.61.93-6.72.96,1.31-1.67,4.62-.94,6.72-.96Z"/>
  <path class="cls-55" d="M516.27,184.29c-1.33,1.7-4.6.89-6.72.96,1.32-1.68,4.61-.92,6.72-.96Z"/>
  <path class="cls-55" d="M627.58,189.08c-9.9-1.5-20.01-2.42-29.75-4.8,9.94.55,20.18,2.04,29.75,4.8Z"/>
  <path class="cls-55" d="M612.23,193.88c-2.11-.05-5.4.73-6.72-.96,2.1.02,5.41-.71,6.72.96Z"/>
  <path class="cls-55" d="M232.22,627.72c-1.31,1.67-4.61.93-6.72.96,1.32-1.69,4.61-.91,6.72-.96Z"/>
  <path class="cls-55" d="M166.97,629.64c-2.1-.02-5.41.71-6.72-.96,2.12.08,5.39-.75,6.72.96Z"/>
  <path class="cls-55" d="M513.39,193.88c-1.06,1.65-3.94.88-5.76.96,1.04-1.61,3.95-.94,5.76-.96Z"/>
  <path class="cls-55" d="M508.59,185.25c-2.99,1.7-7.22,1.55-10.56,1.92,3.05-1.95,7.12-1.71,10.56-1.92Z"/>
  <path class="cls-55" d="M274.45,621c-8.8,2.44-18.66,4.24-27.83,4.8,9.06-2.57,18.54-3.48,27.83-4.8Z"/>
  <path class="cls-55" d="M479.8,130.54c-.91,1.54-4.79,1.57-5.76,0,1.88.14,3.86,0,5.76,0Z"/>
  <path class="cls-55" d="M245.66,625.8c-1.05,1.63-3.94.91-5.76.96,1.05-1.63,3.94-.91,5.76-.96Z"/>
  <path class="cls-55" d="M159.29,628.68c-3.43-.23-7.51.04-10.56-1.92,3.33.38,7.56.21,10.56,1.92Z"/>
  <path class="cls-55" d="M618.94,194.84c-1.82-.08-4.7.69-5.76-.96,1.81.03,4.71-.66,5.76.96Z"/>
  <path class="cls-55" d="M417.43,594.13l15.35-3.84c-.6,2.46-12.26,3.26-15.35,3.84Z"/>
  <path class="cls-55" d="M238.94,626.76c-1.05,1.62-3.95.93-5.76.96,1.05-1.62,3.94-.92,5.76-.96Z"/>
  <path class="cls-55" d="M500.91,195.8c-7.11,2.44-14.73,3.35-22.07,4.8,6.91-3.02,14.68-3.73,22.07-4.8Z"/>
  <path class="cls-55" d="M440.46,202.52c-.46-.2-1.27,0-1.9-.49-2.34-1.8-6.44-15.92-7.7-19.67,4.29,6.22,4.32,14.61,9.6,20.16Z"/>
  <path class="cls-55" d="M310.91,614.28c-4.37,2.12-9.7,2.21-14.39,2.88,4.35-2.15,9.72-2.18,14.39-2.88Z"/>
  <path class="cls-55" d="M477.88,200.6c-8.4,4.35-31.92,6.08-38.33,12.05-5.62,5.23,1.74,13.32,6.67,15.79-6.65-2.05-13.36-10.55-7.21-16.33,5.12-4.82,30.98-9.91,38.88-11.5Z"/>
  <path class="cls-55" d="M357.93,603.73c-14.98,4.72-30.53,8.14-46.06,10.56,15.25-3.43,30.61-8.14,46.06-10.56Z"/>
  <path class="cls-55" d="M363.69,602.77c-.82,1.56-3.26.9-4.8.96,1.09-.15,2.47-.82,4.8-.96Z"/>
  <path class="cls-55" d="M397.28,598.93c-3.82,2.07-9.05,2.61-13.43,2.88,4.02-2,9.1-2.09,13.43-2.88Z"/>
  <path class="cls-55" d="M147.78,626.76c-2.85-.31-6.28.1-8.64-1.92,2.74.4,6.3.22,8.64,1.92Z"/>
  <path class="cls-55" d="M280.2,620.04c-.82,1.56-3.26.9-4.8.96,1.05-.14,2.8-.73,4.8-.96Z"/>
  <path class="cls-55" d="M497.07,187.16c-9.1,2.83-18.62,4.33-27.83,6.72,8.7-3.64,18.51-5.53,27.83-6.72Z"/>
  <path class="cls-55" d="M290.76,618.12c-2.68,1.86-6.53,1.58-9.6,1.92,2.66-1.93,6.59-1.49,9.6-1.92Z"/>
  <path class="cls-55" d="M506.67,194.84c-.82,1.56-3.26.9-4.8.96,1.05-.14,2.58-.78,4.8-.96Z"/>
  <path class="cls-55" d="M629.5,196.76c-3-.44-6.93.01-9.6-1.92,3.09.23,6.9.14,9.6,1.92Z"/>
  <path class="cls-55" d="M430.86,308.1c.33-1.6.64-3.32.96-4.8-.06,1.54.6,3.98-.96,4.8Z"/>
  <path class="cls-55" d="M483.64,219.8c-3.29,2.21-7.89,2.08-11.52,2.88,3.36-2.1,7.76-2.22,11.52-2.88Z"/>
  <path class="cls-55" d="M641.02,191.96c-2.57-.37-5.51-.05-7.68-1.92,2.58.37,5.51.05,7.68,1.92Z"/>
  <path class="cls-55" d="M632.38,190.04c-1.71-.23-3.24-.87-3.84-.96l3.84.96Z"/>
  <path class="cls-55" d="M27.83,611.4c-1.81-2.09-1.61-5.14-1.92-7.68,1.89,2.16,1.52,5.12,1.92,7.68Z"/>
  <path class="cls-55" d="M459.65,225.56c-2.73,2.24-6.32,2.42-9.6,2.88,2.77-1.76,6.45-2.2,9.6-2.88Z"/>
  <path class="cls-55" d="M33.59,634.44c-2.98-5.5-3.6-12.18-4.8-18.24,2.52,5.76,3.39,12.16,4.8,18.24Z"/>
  <path class="cls-55" d="M125.71,621.96c-3.5-.61-7.67-.53-10.56-2.88,3.44.69,7.52,1.02,10.56,2.88Z"/>
  <path class="cls-55" d="M90.2,612.36c-22.02-6.12-43.18-14.44-64.29-23.04l64.29,23.04Z"/>
  <path class="cls-55" d="M138.18,624.84c-3.78-.6-8.15-.82-11.52-2.88,3.77.67,8.13.76,11.52,2.88Z"/>
  <path class="cls-55" d="M416.47,594.13c-4.38,2.1-9.65,2.9-14.39,3.84,4.21-2.62,9.62-3.01,14.39-3.84Z"/>
  <path class="cls-55" d="M473.08,130.54l-3.84-.96c1.25.23,3.64.94,3.84.96Z"/>
  <path class="cls-55" d="M428.94,99.82c.34-2.52.08-5.59,1.92-7.68-.12,2.53-.25,5.62-1.92,7.68Z"/>
  <path class="cls-55" d="M42.22,664.2c-4.12-9.1-6.35-19.09-8.64-28.79,3.82,9.26,5.89,19.2,8.64,28.79Z"/>
  <path class="cls-55" d="M295.56,617.16l-3.84.96c.45-.06,2.24-.73,3.84-.96Z"/>
  <path class="cls-55" d="M114.19,619.08c-7.68-1.63-15.96-3.3-23.03-6.72,7.66,2.1,15.73,3.5,23.03,6.72Z"/>
  <path class="cls-55" d="M652.53,194.84c-3.43-.71-7.52-1-10.56-2.88,3.51.58,7.67.55,10.56,2.88Z"/>
  <path class="cls-55" d="M399.2,343.62c.19-2.1.78-2.88.96-3.84l-.96,3.84Z"/>
  <path class="cls-55" d="M634.3,197.72l-3.84-.96c1.67.3,2.71.71,3.84.96Z"/>
  <path class="cls-55" d="M496.12,216.92c-3.36,2.09-7.76,2.23-11.52,2.88,3.36-1.84,7.73-2.57,11.52-2.88Z"/>
  <path class="cls-55" d="M28.79,615.24c-.03-.17-.71-1.31-.96-2.88l.96,2.88Z"/>
  <path class="cls-55" d="M53.74,698.75c-5.12-10.53-8.26-22.3-11.52-33.59,4.57,10.91,7.93,22.33,11.52,33.59Z"/>
  <path class="cls-55" d="M430.86,181.41c-3.25-5.13-4.84-11.55-6.72-17.28,3.26,5.13,4.83,11.56,6.72,17.28Z"/>
  <path class="cls-55" d="M468.29,193.88c-7.52,2.62-16.3,7.05-23.99,8.64,7.38-4.17,15.85-6.49,23.99-8.64Z"/>
  <path class="cls-55" d="M471.17,222.68c-.4.09-1.49.66-2.88.96l2.88-.96Z"/>
  <path class="cls-55" d="M467.33,223.64c-.33.07-1.54.67-2.88.96l2.88-.96Z"/>
  <path class="cls-55" d="M463.49,224.6c-.33.07-1.52.67-2.88.96l2.88-.96Z"/>
  <path class="cls-55" d="M401.11,597.97l-2.88.96c.15-.03,1.5-.69,2.88-.96Z"/>
  <path class="cls-55" d="M443.34,202.52c-.21.03-.42.69-.76.71-.78.03-.98-.67-1.16-.71h1.92Z"/>
  <path class="cls-55" d="M449.09,228.44c-1.06.08-.07.32-1.92,0h1.92Z"/>
  <path class="cls-26" d="M36.64,797.45c-.8-1.37-.01-2.97.74-4.21,1.83-3,11.67-9.75,14.94-12.88,7.41-7.07,32.3-32.8,33.13-41.78.21-2.24-.2-3.96-.7-6.07-3.2-13.44-11.91-31-16.63-44.79-5.36-15.66-11.59-32.59-15.81-48.49-.85-3.22-5.52-17.08-1.8-18.17,2.61-.77,44.6,15.36,51.44,17.47,106.88,32.86,214.51-8.57,320.92-24.09,198.7-28.98,389.36-16.27,575.36,60.55,14.64,6.04,33.17,13.55,46.67,21.47,2.42,1.42,4.59,2.58,4.89,5.73-10.17,48.99-23.26,97.3-42.72,143.38-2.62,6.21-8.67,22.92-12.06,27.28-1.82,2.34-4.06,1.8-6.65,1.09-6.83-1.89-19.63-9.89-27.15-13.15-63.99-27.82-132.93-41.42-201.82-51.52-112.34-16.48-225.37-16.7-337.51,1.92-112.2,18.63-239.11,50.08-348.65,3.87-4.49-1.89-35.57-15.86-36.6-17.61Z"/>
  <path class="cls-26" d="M647.73,386.81c4.12.06,16.62-1.56,17.81,2.79-.31,16.85,1.85,35.83.46,52.46-.15,1.79-.22,2.6-1,4.25,1.49,1.02.66,2.51-.35,3.78-14.77,15.63-29.9,31.64-45.36,48.04-28.8,23.51-57.67,46.93-86.61,70.26-4.92,5.5-10.39,9.92-16.42,13.26-19.53,1.07-38.98,3.76-58.53,3.83-1.04-5.4-.67-10.87-.97-16.31,5.02-12.25,15.01-24.24,24.3-34.13,32.15-31.35,66.62-60.09,103.43-86.22,22.88-18.2,47.46-38.39,63.23-62.01Z"/>
  <path class="cls-26" d="M1133.29,823.51c-16.13,6.48-31.42,15.32-46.35,24.2-5.63,3.35-37.74,22.69-38.86,26.4-1.49,4.95,2.76,10.82,4.13,15.63,8.16,28.67,12.67,59.87,17.74,89.27-1.94,1.94-28.15-13.25-32.28-15.22-39.34-18.73-85.68-35.48-127.76-46.89-10.59-2.87-21.93-6.29-32.83-7-.14-2.25-.32-1.69,1.42-1.92,14.62-1.87,32.99,1.36,48.04.04,21.21-2.31,43-2.24,64.25-4.85,10.79-1.32,13.06-1.38,18.88-10.87,19.78-32.23,29.04-76.27,40.39-112.22,1.27-3.23,3.6-2.9,6.48-2.19,6,1.48,17.53,7.14,23.67,9.93,16.39,7.44,35.56,17.65,48.74,29.95,1.02.95,5.27,4.46,4.34,5.72Z"/>
  <path class="cls-15" d="M647.73,386.81c1.97,1.65,2.27.16,1,2.42-5.67,10.06-22.79,26.28-31.69,34.54-45.77,42.49-107.05,76.87-145.85,125.75-5.06,6.38-9.03,13.58-14.42,19.65-1.17-21.43-3.84-53.52,3.84-72.95-.64-.79-.95-1.68-.96-2.69-.01-2.67,9.55-16.62,11.83-19.76,18.37-25.26,43.9-49.91,69.14-68.28,3.25-2.36,18.26-12.8,20.92-12.85,1-.02,1.9.26,2.71.88,23.42-10.19,57.61-7.1,83.49-6.72Z"/>
  <path class="cls-26" d="M665.96,844.64l-1.48,4.13c-25.95,25.36-51.89,50.71-77.84,76.07l-4.16,1.39c-32.31.15-64.84-.73-96.92-.96,2.74-6.51,7.31-12.22,13.71-17.15,22.66-20.3,46.54-39.25,71.67-56.86,15.48-10.92,29.56-22.73,42.26-35.41,13.44.08,28.6-.97,41.78-.04,2.57.18,9.5.84,10.52,2.91,1.32,2.67.43,21.17.47,25.92Z"/>
  <path class="cls-15" d="M613.19,815.85c.09,2.22-.5,3.59-1.99,5.21-6.31,6.83-19.58,16.4-27.31,22.59-19.42,15.52-40.17,29.44-59.43,45.18-13.7,11.19-27.47,22.99-38.89,36.45-1.4-.01-3.29,1.02-5.23,1-6.53-.06-19.82,2.64-20.37-5.44-.36-5.39.67-14.01.69-20.07.02-6.67-2.15-9.55,1.88-16.76l-.64-2.45c14.31-21.43,34.29-39.19,54.68-54.73l2.58.55c10.69-7.2,15.78-7.81,28.43-9.48,22.36-2.94,43.31-2.17,65.61-2.04Z"/>
  <path class="cls-15" d="M656.37,522.14l.43,1.98c-10.75,14.14-36.17,42.54-49.86,51.31-1.89,1.21-2.8,1.77-5.27,1.41-4.02,2.59-9.11,3.52-13.88,3.88-22.96,1.74-47.88-.37-71.53.92,30.53-32.05,69.16-55.14,101.73-84.93,13.12-12,23.51-24.62,35-37.94,2.93-3.4,10.4-9.05,12.01-12.46,3.9,1.42.96,4.88.96,6.24v50.87c0,5.34-7.75,13.67-9.6,18.72Z"/>
  <path class="cls-50" d="M564.25,393.53c-31.22,13.58-91.1,71-103.64,102.7l-2.87.96c-.46-25.42.57-50.93.03-76.35-.04-1.96-.96-3.79-1-5.23,5.53-8.59,11.64-16.97,18.32-25.12l3.75-1.75c14.83-.81,29.74-.33,44.78-.36,10.99-.02,23.5-1.9,34.4-.61,4.81.57,4.48,1.77,6.22,5.77Z"/>
  <path class="cls-15" d="M665.96,844.64c.13,14.88-.18,29.79-.04,44.67.06,6.53,2.19,6.79-1.1,14.18-4.78,10.74-15.17,21.22-27.27,22.63-16.04,1.87-38.27.02-55.07.1l83.49-81.58Z"/>
  <path class="cls-15" d="M575.76,229.4c1.23,1.7-1.41,1.79-2.88.96-5.42.16-10.17-1.29-15.82-.94-28.79,1.76-49.95,30.76-59.76,55.4-2.8,7.02-4.12,17.09-6.72,23.03-.41.94-1.3,2.05-2.08,2.72-5.92,5.08-32.86,3.02-41.31,2.83,13.01-27.84,27.24-57.51,54.19-74.42,20.99-13.17,50.77-17.99,74.4-9.57Z"/>
  <path class="cls-15" d="M428.11,338.69c-4.2-6.73,10.05-8.29,13.75-8.55,47.3-3.4,101.54.54,149.78.08,24.6-.24,49.1-2.78,73.84-.99,4.74.34,13.53,1.05,17.82,2.34,3.81,1.14,6.75,3.55,6.76,7.72.03,7.7-5.39,3.02-9.83,2.07-21.92-4.66-47.13-.72-69.39-.57-47.99.31-96.1,0-143.95-1.05-5.28-.12-37.55.92-38.78-1.04Z"/>
  <path class="cls-15" d="M685.01,951.05c-46.8.62-93.66-.36-140.47.09-32.78.32-64.91,2.88-97.85,1.01-3.84-.22-14.91,1.08-16.87-1.36-1.32-1.64-1.65-3.52.32-4.69,3.32-1.99,9.73-3.28,13.65-3.59,53.02-4.19,111.54,3.17,165.13.08,16.99-1.02,35.72-1.96,52.77-1.05,4.53.24,15.82,1.15,19.69,2.39,2.92.94,5.91,4.12,3.64,7.12Z"/>
  <path class="cls-46" d="M601.67,576.85c10.31-6.63,28.08-25.11,36.96-34.54,2.51-2.67,16.4-20.23,17.74-20.17.17,0,1.23,1.44,1.82.94,1.02-.87,5.98-13.54,7.72-2.32,1.43,9.2,1.2,42.15.08,51.79-.58,4.97-2.53,5.85-7.17,6.27-12.88,1.16-37.02,1.04-49.99,0-2.88-.23-4.54-1.21-7.15-1.97Z"/>
  <path class="cls-34" d="M462.53,883.99c-5.45-5.81-2.01-13.86-1.88-20.6.2-10.1-1.22-23.17-.09-32.73.14-1.18.05-1.89.99-2.85,1.26-1.27,30.87-5.67,35.17-6.09,3.34-.33,20.95-1.74,22.35-.06.97,1.16-1.37,4.64.07,5.69-16.06,10.82-47.34,40-56.62,56.63Z"/>
  <path class="cls-55" d="M617.98,357.04c-33.33-1.19-66.85-1.09-100.32-1-27.04.08-54.41,2.1-81.51.04-4.08-.31-13.43-.59-9.2-6.3,2.92-3.94,11.49-3.46,15.94-3.32,51.21,1.52,102.41,4.5,153.51,7.71,6.56.41,17.65-2.28,21.58,2.88Z"/>
  <path class="cls-55" d="M623.74,966.55c.09,1.41-3.45,1.69-4.43,1.79-33.63,3.41-69.59-.38-103.56,1.12-26.25-4.23-57.68,2.24-83.49-.95-5.3-.66-4.06-6.09-.36-8.13,4.83-2.66,7.76-.63,11.93-.56,47.27.75,94.72,4.14,141.97,5.8,12.59.44,25.57-1.18,37.94.93Z"/>
  <path class="cls-15" d="M538.34,1061.56c.82.89.18,1.21-1.92.96-22.52-5.79-38.87-13.49-54.23-31.66-4.15-4.91-18.23-27.75-17.8-33.12.07-.85.91-2.41,1.49-2.41h15.35c4.44,0,6.04,11.22,7.42,14.65,11.16,27.76,25.43,36.75,49.67,51.58Z"/>
  <path class="cls-53" d="M985.51,897.42c-8.79-.14-17.63.2-26.43.05-2.04-.04-3.95-.98-5.73-.99-21.74-.11-43.48,2.34-65.26,0l-1.42-1.92c5.35.82,10.76-.79,15.79-1,15.42-.66,31.83,1.09,47.1.08,11.96-.79,26.49-7.29,35.95,3.79Z"/>
  <path class="cls-55" d="M478.84,388.73l-18.86,24.7-3.21,2.17c-.14-4.95.1-9.95.05-14.91-.04-3.46-2.05-6.47.43-10.05,6.62-1.78,14.58-1.52,21.6-1.91Z"/>
  <path class="cls-55" d="M807.79,923.54c9.54-.8,16.08,13.3,3.78,17.31-17.59,5.73-17.54-16.15-3.78-17.31Z"/>
  <path class="cls-11" d="M925.06,886.87c13.04-1.18,26.7-1.48,39.83-.96,1.29.05,3.99-.8,3.35,1.43-.54,1.87-34.61.31-38.94.45-1.85.06-3.42.96-4.25,1-2.55-.31-2.44-1.19,0-1.92Z"/>
  <path class="cls-43" d="M925.06,886.87v1.92c-1.36.07-9.6.31-9.61-.48,2.88-1.84,6.46-1.16,9.61-1.44Z"/>
  <path class="cls-35" d="M578.64,230.36c.94,1.03.3,1.35-1.92.96-1.14-.23-3.14.6-3.84-.96,1.05-.03,2.42.28,2.88-.96.96.34,1.84.49,2.88.96Z"/>
  <path class="cls-48" d="M578.64,230.36c1.31.59,3.19.72,2.87,1.91-1.93.89-3.67-.72-4.79-.95l1.92-.96Z"/>
  <path class="cls-6" d="M504.75,215c1.02-.17,2.83-1.85,4.79-.95.31,1.24-1.57,1.26-2.87,1.91l-1.92-.96Z"/>
  <path class="cls-27" d="M540.26,1062.52c1.26,1.25.73,1.59-.96.96-.96-.29-2.2-.79-2.88-.96l1.92-.96c.6.37,1.34.57,1.92.96Z"/>
  <path class="cls-30" d="M540.26,1062.52c.71.49,1.92.78,1.92,1.91-1.54.59-2.16-.73-2.88-.95l.96-.96Z"/>
  <path class="cls-15" d="M499.62,1146.11c1.71-.52,10.52,1.64,13.3,1.83,14.67,1,44.91-.81,53.45,13.73,5.04,8.58,3.47,20.65-3.08,28.03-1.49,1.68-7.18,4.77-6.71,6.69.19.79,3.35,2.18,4.35,3.36,13.22,15.45-1.95,39.48-20.44,42.02-8.04,1.1-26.61-.59-35.14-1.79-11.91-1.68-8.49-1.65-8.28-10.93.24-10.53.37-21.15.98-31.65.67-11.54,4.21-30.44,2.62-41.03-.43-2.85-4.38-9.25-1.04-10.25Z"/>
  <path class="cls-15" d="M777.24,1188.21c-.79,1.14-24.37,11.16-25.87,9.65-.11-2.46.64-5.14-.89-7.27-.79-1.11-15.04-10.1-16.95-10.87-6.23-2.49-7.83,1.3-13.79,1.86-.63.72,4.03,16.65,4.99,18.46,1.6,3.02,7.98,5.94,6.44,8.32-.79,1.22-24.32,7.95-27.78,8.69,3.38-5.55,1.48-9.22-.24-14.62-4.99-15.59-16.39-46.72-23.86-60.6-2.41-4.47-5.3-4.86-7.56-8.74,11.57-5.16,24.17-11.47,36.23-15.61,14.43-4.95,27.68-8.84,39.11,4.54,8.57,10.02,8.19,20.48,3.23,32.05-3.56,8.31-8.71,7.67,1.33,15.22,4.41,3.32,23.66,13.22,25.18,16.09.4.76.85,2.24.44,2.83Z"/>
  <path class="cls-15" d="M454.85,1229.53c-7.4-1.26-14.56-3.34-21.85-5.02l-9.61-30.22c-.97-2.55-5.05-8.85-7.41-9.87-1.48-.64-1.3.46-1.64,1.19-3.71,8.1-5.9,20.64-5.55,29.51l-28.78-8.65c4.75-3.58,6.48-6.53,8.66-11.96,5.68-14.18,10.44-32.61,14.85-47.54,1.19-4.02,6.18-26.83,7.27-27.75.68-.58,3.64.06,4.75.38,10.12,2.86,41.49,15.66,48.92,22.09,10.9,9.42,11.59,24.33,3.28,35.94-5.91,8.26-14.74,7.72-23.51,10.24-.91,3.29,3.32,11.8,4.38,15.73,2.1,7.81,3.16,18.74,8.16,24.95.92,1.11.28,1.43-1.92.96Z"/>
  <path class="cls-15" d="M201.52,1083.65l7.19-2.9c13.45-14.41,29.69-26.99,42.73-41.72,5.46-6.17,10-11.89,12.93-19.68,1.05.01,8.94,10.73,10.54,12.47,10.44,11.35,38.39,30.13,25.44,47.49-5.1,6.83-16.44,8.02-18.04,10.75-1.85,3.15-.86,8.92-1.58,12.82-2.37,12.85-16.92,22.57-29.71,20.99-8.55-1.06-24.77-18.73-31.78-24.84-1.36-1.19-19.05-14.08-17.72-15.38Z"/>
  <path class="cls-15" d="M838.96,1033.47c1.75,2.18,20.94,12.55,25,14.82,10.25,5.72,20.86,11.35,31.33,16.65,6.82,3.46,13.61,7.51,21.13,9.11,2.21,3.16-15.73,20.07-18.74,23l-10.47-11.55c-4.75-2.99-9.79,5.45-13.51,8.66-1.79,1.55-9.06,5.88-9.6,6.72-.93,1.43-.2,1.46.48,2.46,2.32,3.38,13.32,7.92,12.4,11.32-.12.43-4.82,6.1-5.61,6.93-5.25,5.45-13.1,10.57-18.76,15.79-1.15-1.68.38-3.9.22-5.97-.67-8.66-11.4-27.38-15.89-35.95-7.64-14.59-16.63-28.46-24.15-43.12-.73-7.63,16.69-18.39,21.1-24.86,4.68-2.2,3.3,3.79,5.07,5.99Z"/>
  <path class="cls-15" d="M341.62,1084.6v-.96c10.22,5.15,19.99,11.08,30.11,16.43,4.13,2.83-2.88,7.3-2.62,11.54l-17.87,82.91c-.83.97-1.76.01-2.63-.29-1.87-.65-21.22-11.59-21.91-12.66-1.97-3.04,2.29-4.01,3.93-5.76,5.66-6.06,4.12-11.45-1.96-16.36-2.18-1.76-14.3-9.4-16.41-9.6-7.62-.73-9.14,14.68-15.1,14.17-3.93-.34-16.97-12.61-21.73-14.66,10.65-3.62,16.08-12.29,23.96-19.21,11.76-10.32,25.99-20.39,36.98-31.16,4.62-4.53,8.14-7.29,5.25-14.42Z"/>
  <path class="cls-15" d="M653.49,1158.5c.47,1.75.15,2.39-.96,1.92-4.04-2.73-9.14-3.27-13.91-2.87-2.35.2-19.14,4.47-19.76,5.42-1.69,2.64-.54,15.62,1.49,17.63,4.75,4.71,23.57-6.51,29.35-2.49,1.12.78,1.49,14.69,3.76,17.35-3.07.13-4.39-1.66-8.1-1.48-3.21.15-7.51,1.93-10.84,2.66-4.36.96-9.94-1.02-10.84,5.47-.39,2.83.33,12.37.96,15.26.24,1.1,2.19,1.15,3.04,1.09,3.74-.29,22.92-4.87,26.05-6.43,5.02-2.5,4.77-7.44,7.89-11.28,2.97,0,5.8,22.37,6.21,25.86l-64.26,13.47c.8-5,3.17-7.34,2.78-12.81-1.17-16.32-6.01-45.18-9.79-61.28-.65-2.75-5.35-14.48-5.02-15.21,1.54-3.38,49.87-11.57,56.66-14.39.54-.01,1.04.12,1.48.44,1.66,1.2,3.29,18.22,3.78,21.67Z"/>
  <path class="cls-15" d="M784,1078.84c.57,2.87-.81,6.86,1.21,9.82,12.16,17.99,21.44,39.91,33.52,57.66,3.23,4.75,4.57,7.3,11.33,6.44-1.02,3.83-25.63,20.54-26.86,19.18-.16-2.65.3-5.43-.09-8.07-.77-5.27-29.57-52.25-34.64-59.41-3.17-4.48-6.1-7.3-10.35-10.74,0-1.78,21.63-14.14,24.93-15.84,1.37-.87,1.81-.4.96.96Z"/>
  <path class="cls-55" d="M351.21,870.56c-13.44,17.36-38.77,31.64-57.66,43.59-32.02,20.25-66.82,41.11-100.03,59.28-7.73,4.23-13.63,7.18-21.76,10.39-1.61.59-1.83.59-.96-.96,38.15-22.2,76.84-45.99,114.11-69.67,22.06-14.01,44.09-30.41,66.29-43.59v.96Z"/>
  <path class="cls-55" d="M766.49,1052.14c4.02-.34,10.17,5.22,10.78,9.01,1.46,9.07-17.34,20.05-23.49,11.92-5.72-7.57,4.64-20.24,12.71-20.93Z"/>
  <path class="cls-41" d="M170.81,982.86l.96.96c-1.01.4-1.93,1.26-3.84,1.92-1.43.47-1.69.43-.96-.96,1.32-.74,2.79-1.31,3.84-1.92Z"/>
  <path class="cls-42" d="M167.93,985.73c-1.07.37-2.02,1.63-3.83.95-.32-1.3,1.59-1.18,2.87-1.91l.96.96Z"/>
  <path class="cls-19" d="M653.49,1158.5c.1.72,1.67,2.24.95,3.84-1.15.12-1.42-1.59-1.91-1.92l.96-1.92Z"/>
  <path class="cls-14" d="M456.77,1228.57c.41.51,2.02.75,1.92,1.91-1.63.71-3.06-.82-3.84-.95l1.92-.96Z"/>
  <path class="cls-44" d="M353.13,868.64c-.66.79-1.59,1.5-1.92,1.92v-.96c.32-.19.58-.73.96-.96h.96Z"/>
  <path class="cls-33" d="M783.04,1077.88l.49-.95c1.49-.22,1.64-.07,1.42,1.42l-.95.49c-.13-.67-.08-1.05-.96-.96Z"/>
  <path class="cls-38" d="M341.62,1083.64v.96c-2.17-2.71-1.07-1.5,0-.96Z"/>
  <path class="cls-22" d="M352.17,868.64c1.24-1.45,2.55-1.9.96,0h-.96Z"/>
  <path class="cls-15" d="M584.4,693.96c-.39.41-.14,1.32.6,1.99,2.62,2.36,8.09,4.23,10.91,7.12,9.71,9.98,11.63,26.85,3.84,38.39-9.07,13.46-23.48,21.13-39.15,24.19-5.26,1.03-31.77,3.88-34.8,1.78-2.03-1.41.75-12.45,1.01-15.42,2.47-27.84,1.72-55.62,1-83.54-.27-10.44-2.45-22.14-1.05-32.64.45-3.34,2.14-4.48,5.38-5.18,22.26,1.59,56.84-12.58,66.16,16.26,5.86,18.12,4.83,37.99-13.92,47.05Z"/>
  <path class="cls-15" d="M753.92,640.35c3.75-1.21,26.73,2.91,32.17,3.99,12.46,2.48,31.07,7.11,39,17.62,11.44,15.16,8.1,44.33-6.54,56.48-2.96,2.46-12.17,6.26-12.53,8.65l13.07,52.25c.79.72-.53,1.64-1.16,1.82-2.76.78-19.78-2.13-23.56-3.04-9.07-2.19-4.56-1.86-3.13-6.37,1.65-5.2-1.46-14.84-2.73-20.41-.92-4.03-3.75-16.93-5.24-19.71-1.75-3.27-10.36-4.72-11.57-1.5s-4.92,25.73-5.01,29.63c-.07,3.01,2.55,11.72.09,13.44-1.68,1.17-26.96-1.6-29.78-4.85,9.55-10.07,7.9-22.08,9.59-34.54,2.85-21.04,11.23-64.2,8.53-83.44-.41-2.95-4.77-8.86-1.21-10.01Z"/>
  <path class="cls-15" d="M447.18,775.53c-9.88-6.82-14.8-10.29-16.2-23.63-2.77-26.53,1.66-57.27-.13-84.34-.53-8.03-2.07-16.31-5.75-23.52l29.75-2.89c.71,3.8-.88,7.45-1,11-.89,25.23-1.63,57.66.05,82.57.18,2.73.68,7.81,1.18,10.34,2.76,14.03,24.56,11.94,26.56-2.74-2.15-30.3,3.15-65.24.14-94.99-.53-5.18-5.25-9.29,2.42-10.91,3.22-.68,22.82-2.37,24.39-1.03-1.37,3.6-3.57,5.1-4.69,9.22-1.69,6.22-.14,8.4-.11,13.81l1.29,3.44c-1.12,7.32-1.66,15.47-.33,22.47,2.15,19.77,1.84,40.61.81,60.71-.09,1.75-.49,3.27-1.77,4.56l-.96.96c-.04.31.05.65,0,.96-.3,4.64-2.06,8.61-5.76,11.52-2.07,1.71-3.18,2.45-4.8,4.8-9.82,11.16-31.95,11.69-45.1,7.68Z"/>
  <path class="cls-15" d="M971.95,831.08c-1.27.81-27.39-7.25-28.25-8.46-1.79-2.53,2.12-4.48,3.26-6.45,2.41-4.16,6.14-15.36,4.78-19.81-.94-3.06-14.17-5.89-17.86-7.1-2.5-.83-4.71-3.76-7.41-1.25-.88.83-5.08,8.91-5.73,10.58-1.02,2.59-2.25,10.82-3.98,11.42-3.91,1.34-23.66-6.3-29.13-6.64,21.43-27.57,34.31-60.42,50.36-91.19,4.33-8.3,10.05-15.83,12.62-25.01,1.4-.07,2.69.36,4.02.74,6.14,1.73,22.75,8.15,28.26,11.08,4.94,2.63-.46,5.49-1.16,9.92-2.18,13.91-2.59,34.01-3.89,48.9-1.62,18.55-4.27,37.29-5.75,55.68-.25,3.15,1.13,16.81-.14,17.62Z"/>
  <path class="cls-15" d="M265.81,778.89c-.34-1.65-2.42-3.77-4.3-3.46-5.67,1.8-23.67.08-26.17,5.61-2.72,5.99-2.49,14.33-.25,20.38-.71,1.01-22.39,4.24-24.44,3.88-1.09-.19-1.88-.46-2.37-1.53,7.27-22.09,8.28-45.86,11.62-68.88,2.05-14.08,8.64-38.16,8.28-51.03-.2-7.13-5.98-10.34,4.62-11.89,11.76-1.72,24.07-2.23,35.88-2.99-.96,12.53.74,23.57,3.17,35.7,4.77,23.82,10.23,61.16,17.99,82.79,1.28,3.56,6.31,7.46,4.34,10.2-1.22,1.69-12.55.75-15.46.85-2.16.07-12.91,2.66-12.91-.44,0-5.01.88-15,0-19.2Z"/>
  <path class="cls-15" d="M729.52,669.72c-.96-1.22-2.21-5.99-4.23-8.72-4.71-6.36-14.46-10.88-22.4-9.29-3.14.63-3.92,9.71-4.29,12.98-.32,2.9-1.31,20.23-.51,21.59,1.41,2.4,24.27,6.71,25.92-.97.21,8.11-2.74,16.63-3.37,24.95-7.96-3.1-17.19-5.5-25.49-2.94l-4.34,36.07.64,1.54c15.4,5.13,29.57,2.22,40.7-9.71-.52,11.51-4.26,22.56-7.18,33.61l-61.91-4.32c-2.34-1.97,1.31-8.36,1.82-11.63,4.34-27.86,7.58-65.7,8.73-93.97.25-6.09.67-15.31.04-21.14-.33-3.07-2.88-5.23-1.54-8.19l65.42,6.68c.83.65,1.13,1.51,1.32,2.52.73,3.86-2.31,24.8-3.8,28.77-.9,2.4-3.87,4.29-5.54,2.17Z"/>
  <path class="cls-15" d="M375.93,651.01c11.43-1.54,21.58,2.02,29,10.81,5.7,6.76,10.39,16.8,3.38,24.46-2.31,2.52-12.72,10.44-15.95,10.07-10.24-1.18,2.65-21.38-8.45-24.06-4.87-1.17-8.31.37-11.43,4.06-12.93,15.27-17.29,70.76-1.44,84.65,10.3,9.02,18.96-.5,19.52-11.85.13-2.53-2.81-6.8.97-8.67,2.49-1.23,15.51,3.99,18.16,5.86,12.14,8.57-2.09,27.25-11.14,32.88-18.79,11.69-44.1,10.31-54.23-11.64-14.59-31.61-13.48-110.46,31.62-116.55Z"/>
  <path class="cls-15" d="M847.33,683.39c-2.3.56-4.83.33-7.2,1.93-1.75.18-1.43.02-1.47-1.47-.23-8.34,6.07-17.1,6.01-25.67l2.29-2.4c13.32,3.04,26.75,6.02,39.92,9.65,8.28,2.28,23.99,5.77,31.03,9.28,1.34.67,3.13,1.52,3.77,2.94,2.26,5-4.53,22.11-3.35,28.78-6.02-3.89-10.9-10.69-17.36-13.82-2.25-1.09-7.86-3.63-9.58-.89l-19.83,93.18-.25,10.79c-4.18-.25-27.37-5.65-27.63-9.11-.06-.74,6.02-10.41,6.99-12.98,5.67-14.99,14.79-62.74,14.89-78.69.98-1.91,1.59-10.11.27-11.2-3.23-2.66-14.45-1.35-18.5-.32Z"/>
  <path class="cls-15" d="M164.09,676.68c-6.03,12.63-6.36,26.16-6.73,39.81-.44,16.44-1.47,33.33-1.9,49.93-.24,9.19-2.03,16.54,9.1,17.75,12.57,1.36,17.96-3.99,18.72-16.33,6.03-.13,7.23.37,7.72,6.2s.76,20.38-.1,25.89c-.6,3.85-2.68,4.74-6.27,5.25-11.21,1.6-33.18-1.17-44.99-2.81-17.86-2.48-8.46-2.92-7.22-13.89,3-26.55.03-65.24-.05-93.14,0-2.03,1.01-3.89,1-5.72-.03-5.2-3.4-9.84-3.83-14.88,11.57-.22,23.13-.05,34.54,1.92Z"/>
  <path class="cls-15" d="M644.85,727.54c-.92,7.45-1.88,18.05-.99,25.46.64,5.26,6.48,9.86-3.31,11.03-3.13.38-24.05.11-25.45-.99,8-13.08,4.23-31.4,4.76-46.58.82-23.5,4.49-49.51,2.96-72.95-.4-6.21-1.81-12.36-3.9-18.18-.02-1.37,24.88,1.26,27.24,1.55,14.11,1.68,7.21,3.85,3.74,11.18-2.44,5.15-2.9,15.71-3.18,21.78-1.03,22.43.85,45.66.04,68.18l-.96-.48c-.78-.25-.7-1.42,0-1.92-.32-.46-.64-.45-.96,0,.71.64.71,1.32,0,1.92Z"/>
  <path class="cls-4" d="M506.67,662.28l.05,83.07c.15,2.59-1.27,3.06-2.93,4.27,3.23-21.95,1.56-43.29.96-65.27-.63-3.37-1.32-23.12.33-23.42l1.59,1.35Z"/>
  <path class="cls-51" d="M492.28,767.86c-.43.63-.42,2.46-1.45,3.8-5.53,7.22-34.85,8.34-42.99,5.8-1.22-.38-.54-1.84-.66-1.92,15.41,2.44,32.08,1.75,45.1-7.68Z"/>
  <path class="cls-52" d="M847.33,683.39c.46-.11,1.48-1.61,4.3-1.94,2.33-.27,15.82-.29,16.7,1.1-.24,3.77-.07,9.49-2.77,12.36.11-16.84-3.88-10.41-18.23-11.52Z"/>
  <path class="cls-40" d="M497.07,763.06l5.76-11.52c-.23,1.35,1.51,3.71-.56,7.6-1.55,2.92-3.9,2.85-5.2,3.92Z"/>
  <path class="cls-36" d="M503.79,658.44l2.88,3.84c-2.9-.54-1.86,1.47-1.92,3.32-.21,6.19-.17,12.58,0,18.76-1.59-1-.96-3.64-.98-5.27-.09-6.88.06-13.78.02-20.65Z"/>
  <path class="cls-31" d="M645.81,727.54h-.96c.08-.62-.07-1.29,0-1.92.27-.84.59-.83.96,0v1.92Z"/>
  <path class="cls-40" d="M502.83,750.58c.04-.32.93-.74.96-.96-.35.25-.6.7-.96.96Z"/>
  <path class="cls-8" d="M519.81,1201.88c3.15-.96,17.2,1.4,19.99,3.63,5.01,4.02,4.54,12.76-1.13,16.2-3.41,2.07-18.62,4.5-21.47,1.61-2.46-2.49.09-6.09.06-8.71-.04-3.52-2.97-11.05,2.55-12.73Z"/>
  <path class="cls-3" d="M520.24,1184.28c-1.58-17.7,2.01-19.85,18.49-17.05,4.1.7,6.08,1.72,6.38,6.17.83,12.31-16.28,13.96-24.87,10.88Z"/>
  <path class="cls-10" d="M702.58,1140.41c.7-1.13,19.89-7.08,22.31-6.85,18.08,1.74-2.24,32.53-11.42,31.72-1.51-.13-1.56-.61-2.23-1.68-1.87-3.02-6.93-14.37-8.07-17.83-.48-1.46-1.42-4.04-.6-5.36Z"/>
  <path class="cls-23" d="M446.87,1168.76c-3.57,3.9-25.27,3.74-26.56-3.09-.45-2.39,5.2-21.15,6.69-22.07,3.2-1.96,18.63,6.29,20.63,9.16,2.43,3.49,2.17,12.78-.77,15.99Z"/>
  <path class="cls-12" d="M260.72,1098.72c-6.44,7.9-29.05-3.54-27.16-10.31.62-2.23,12.12-13.7,14.35-13.26.67.13,7.85,7.3,8.79,8.48,3,3.77,7.8,10.46,4.02,15.09Z"/>
  <path class="cls-29" d="M258.14,1063.47c7.17-8.86,15.77-15.16,22.44-1.81,1.79,3.57,2.22,6.33-1.36,8.99-6.1,4.53-14.98-5.96-21.08-7.18Z"/>
  <path class="cls-3" d="M867.47,1072.14c1.31,1.57-2.32,2.7-3.38,3.77-1.65,1.68-8.37,10.79-10.03,9.64-3.98-9.49-10.81-17.34-16.33-25.9.63-.51,13.43,4.47,15.34,5.28s13.89,6.58,14.4,7.2Z"/>
  <path class="cls-37" d="M323.39,1135.45c-.3-1.34.19-1.58.93-2.41,5.3-6.01,16.99-11.82,23.05-17.73-1.11,5.33-3.49,22.98-6.74,26.39s-12.63-6.31-17.24-6.25Z"/>
  <path class="cls-25" d="M550.81,688.19v-31.19c0-.76,1.73-6.71,2.63-7.21,5.73-3.16,18.1.25,21.79,5.81,10.7,16.11-8.97,33.02-24.42,32.59Z"/>
  <path class="cls-5" d="M563.29,708.35c14.45,3.06,17.11,13.48,10.56,25.92-3.57,5.21-2.54,4.84-8.64,7.68-8.15,3.2-12.63,2.49-13.43-2.13l-.34-23.28c-.49-5.94,2.82-8.99,9.93-9.15.32,0,.64,0,.96,0,.63.01.95.33.96.96Z"/>
  <path class="cls-21" d="M561.37,707.39c-3.69,2.45-6.76,1.37-8.6,6.27-1.67,4.43.05,5.88.01,9.53-.05,3.92-1.21,15.31.49,17.73,2.85,4.05,7.59-.05,11.94,1.02-2.09.97-14.39,6.43-14.39,1.44v-33.59c0-3.06,8.4-2.34,10.56-2.4Z"/>
  <path class="cls-1" d="M573.84,734.26c-.65-6.28,4.25-9.24,1.45-15.36-3.09-6.74-8.9-6.25-12-10.56v-.96c5.83.34,7.32-.65,11.49,4.34,6.83,8.16,4.27,14.93-.94,22.53Z"/>
  <path class="cls-21" d="M563.29,708.35c-.25-.35-.7-.6-.96-.96.32,0,.64-.02.96,0v.96Z"/>
  <path class="cls-57" d="M775.35,707.39c-1.4-1.4,2.41-36.4,4.36-39.31,4.21-6.3,23.44,4,26.1,11.25,7.04,19.21-13.69,31.12-30.46,28.07Z"/>
  <polygon class="cls-54" points="955.76 777.45 935.55 770.17 955.76 730.42 955.76 777.45"/>
  <path class="cls-24" d="M259.91,756.2c-4.73,1.5-9.55,1.16-14.47,2.32-2.83.67-5.09,3.36-8.42,2.61l9.6-55.66c1.68-.34,1.93.43,2.66,1.65,2.54,4.25,9.79,36.97,10.5,43.24.22,1.94.65,3.9.13,5.84Z"/>
  <path class="cls-13" d="M645.81,725.62h-.96c.1-.91-.44-2.89.48-2.89.91.24.48,2.04.48,2.89Z"/>
</svg>
